<?xml version="1.0" encoding="utf-8"?>
<!-- Generator: Adobe Illustrator 25.2.0, SVG Export Plug-In . SVG Version: 6.00 Build 0)  -->
<svg version="1.1" id="Layer_1" xmlns="http://www.w3.org/2000/svg" xmlns:xlink="http://www.w3.org/1999/xlink" x="0px" y="0px"
	 viewBox="0 0 135 40" style="enable-background:new 0 0 135 40;" xml:space="preserve">
<style type="text/css">
	.st0{opacity:0.4;}
	.st1{fill:#FEFEFE;stroke:#000000;stroke-width:0.25;stroke-miterlimit:10;}
	.st2{fill:#F44336;}
	.st3{fill:#FFC107;}
	.st4{fill:#4CAF50;}
	.st5{fill:#2196F3;}
	.st6{fill:#FAFAFA;}
	.st7{fill:#3E3C3C;}
</style>
<g id="background" class="st0">
	<path class="st1" d="M133.4,39.2H1.6c-0.6,0-1.1-0.5-1.1-1.1V1.9c0-0.6,0.5-1.1,1.1-1.1h131.8c0.6,0,1.1,0.5,1.1,1.1v36.2
		C134.5,38.7,134,39.2,133.4,39.2z"/>
</g>
<g id="Layer_1_1_">
	<g id="chrome">
		<path class="st2" d="M36.5,13.1h-16c-3.6,0-6.5,2.9-6.5,6.5c0,1.1,0.3,2.2,0.8,3.2L6.8,9C12.6,1.5,23.5,0.1,31,5.9
			C33.4,7.8,35.3,10.3,36.5,13.1z"/>
		<path class="st3" d="M37.7,19.6c0,9.5-7.7,17.3-17.3,17.3c-0.7,0-1.4,0-2.2-0.1L26,22.9c1.8-3.1,0.7-7.1-2.4-8.9
			c-1-0.6-2.1-0.9-3.2-0.9h16C37.3,15.2,37.7,17.4,37.7,19.6z"/>
		<path class="st4" d="M26.1,22.9l-7.8,13.9l0,0C8.8,35.6,2.1,27,3.3,17.5c0.4-3.1,1.6-6,3.5-8.4l8,13.7v0.1
			c1.8,3.1,5.7,4.2,8.9,2.4C24.7,24.7,25.5,23.9,26.1,22.9z"/>
		<path class="st2" d="M26.1,22.9c-1.8,3.1-5.7,4.2-8.9,2.4c-1-0.6-1.8-1.4-2.4-2.4v-0.1c-1.8-3.1-0.6-7.1,2.5-8.8
			c1-0.5,2.1-0.8,3.2-0.8l0,0c1.1,0,2.2,0.3,3.2,0.9C26.8,15.8,27.8,19.8,26.1,22.9z"/>
		<path class="st5" d="M26.1,22.9c-1.8,3.1-5.7,4.2-8.9,2.4c-1-0.6-1.8-1.4-2.4-2.4v-0.1c-1.8-3.1-0.6-7.1,2.5-8.8
			c1-0.5,2.1-0.8,3.2-0.8l0,0c1.1,0,2.2,0.3,3.2,0.9C26.8,15.8,27.8,19.8,26.1,22.9z"/>
		<path class="st6" d="M20.4,26.8c-1.3,0-2.5-0.3-3.6-1c-1.1-0.6-2-1.5-2.6-2.6c-2-3.4-0.8-7.8,2.6-9.8c1.1-0.6,2.3-1,3.6-1
			c4,0,7.2,3.2,7.2,7.2c0,1.3-0.3,2.5-1,3.6l0,0C25.4,25.5,23,26.8,20.4,26.8z M20.5,13.9c-2.1,0-4,1.1-5,2.9
			c-1.6,2.8-0.6,6.3,2.1,7.9s6.3,0.6,7.9-2.1l0,0c1.6-2.8,0.6-6.3-2.1-7.9C22.5,14.1,21.5,13.9,20.5,13.9L20.5,13.9L20.5,13.9z"/>
	</g>
</g>
<g id="text">
	<g>
		<path class="st7" d="M43.7,22.5c-0.1,0-0.3,0-0.5,0s-0.4,0-0.5,0c-0.2,0-0.4,0.1-0.4,0.3c0,0.1-0.1,0.3-0.1,0.6l0.1,3.9
			c0,0.2,0,0.3-0.1,0.5c-0.1,0.1-0.3,0.2-0.4,0.2c-0.4,0-0.5-0.2-0.6-0.6L41,23.1c-0.1-1.1,0.4-1.7,1.2-1.9c0-0.2-0.1-0.3-0.1-0.5
			c0-0.5,0.2-1,0.6-1.4c0.3-0.4,0.7-0.5,1.2-0.5c0.6,0,1.1,0.2,1.6,0.6c0.4,0.4,0.5,0.8,0.5,1.4s-0.2,1.1-0.6,1.5
			C44.9,22.3,44.4,22.5,43.7,22.5z M44.7,20.6c0-0.4-0.2-0.7-0.8-0.7c-0.2,0-0.3,0-0.5,0.2s-0.2,0.3-0.2,0.5c0,0.3,0.3,0.5,0.8,0.5
			C44.5,21,44.7,20.9,44.7,20.6z"/>
		<path class="st7" d="M51.3,20.9c0,1-0.4,2-1.1,2.9c-0.7,0.8-1.5,1.4-2.6,1.8c-0.1,0-0.2,0.1-0.4,0.1s-0.3-0.1-0.5-0.2
			c-0.1-0.1-0.2-0.3-0.2-0.5c0-0.3,0.2-0.5,0.5-0.6c0.6-0.3,1.2-0.6,1.7-1c0.6-0.5,1-1,1.2-1.5c-0.2,0.1-0.5,0.2-0.8,0.2
			c-0.5,0-0.9-0.1-1.2-0.4s-0.4-0.7-0.4-1.2s0.2-1,0.5-1.5s0.8-0.8,1.2-0.8c0.7,0,1.2,0.3,1.6,0.9C51.2,19.6,51.3,20.2,51.3,20.9z
			 M50,20.5c0-0.2-0.1-0.4-0.2-0.6c-0.1-0.2-0.3-0.3-0.5-0.3c-0.1,0-0.3,0.1-0.4,0.2c-0.1,0.1-0.2,0.2-0.2,0.4
			c0,0.3,0.2,0.5,0.6,0.5C49.6,20.6,49.8,20.5,50,20.5z"/>
		<path class="st7" d="M58.7,22.8h-0.5c-0.5,0-0.9-0.2-1.1-0.5c-0.3,0.9-0.8,1.6-1.5,2.2c-0.6,0.5-1.3,0.9-2.3,1.3
			c-0.1,0.1-0.3,0.1-0.4,0.1c-0.2,0-0.3-0.1-0.5-0.2c-0.1-0.1-0.2-0.3-0.2-0.4c0-0.3,0.2-0.6,0.6-0.8c0.8-0.4,1.4-0.7,1.9-1.1
			c0.7-0.5,1.1-1.1,1.2-1.7c0-0.1,0-0.2,0-0.3c0-0.4-0.1-0.7-0.2-1.2c0-0.1,0-0.2,0-0.2c0-0.2,0.1-0.4,0.2-0.5s0.3-0.2,0.5-0.2
			c0.3,0,0.5,0.1,0.7,0.5c0,0,0.1,0.3,0.4,0.8c0.2,0.3,0.6,0.5,1.1,0.5h0.2v1.7H58.7z"/>
		<path class="st7" d="M63.9,15.7c-1.3,0.3-2.5,0.7-3.6,1.1c-0.1,0-0.2,0.1-0.2,0.2s0,0.2,0.1,0.3c1.7,1.3,2.5,2.4,2.5,3.3
			s-0.3,1.5-1,1.8c-0.6,0.3-1.6,0.4-2.9,0.4h-0.5v-1.6h0.3c0.9,0,1.4,0,1.6,0c0.8-0.1,1.2-0.3,1.2-0.6c0-0.2-0.4-0.7-1.1-1.3
			c-0.9-0.7-1.4-1.2-1.5-1.5c-0.1-0.2-0.1-0.4-0.1-0.6c0-0.5,0.2-0.9,0.6-1.2c0.9-0.5,2.3-1,4.2-1.5c0.1,0,0.2,0,0.3,0
			c0.5,0,0.8,0.2,0.8,0.7C64.5,15.4,64.3,15.6,63.9,15.7z"/>
		<path class="st7" d="M73.6,22.8h-0.5c-1.3,0-1.9-0.6-2-1.8c-0.3,0.1-0.6,0.2-0.9,0.2c-0.4,0-0.8-0.1-1.2-0.3
			c-0.4-0.2-0.6-0.5-0.6-0.9c0-0.7,0.3-1.2,0.9-1.6c0.3-0.2,0.8-0.5,1.5-1c0.2-0.1,0.3-0.4,0.6-0.7c0.1-0.2,0.3-0.3,0.5-0.3
			c0.4,0,0.6,0.3,0.6,0.8c0,0.2,0,0.5-0.1,1s-0.1,0.8-0.1,1c0,0.6,0,1,0.1,1.2c0.1,0.5,0.4,0.7,0.8,0.7h0.5v1.7H73.6z M71,18.6
			c-0.1,0.1-0.4,0.3-0.9,0.6c-0.3,0.2-0.5,0.3-0.5,0.5s0.2,0.2,0.5,0.2s0.6,0,0.8-0.1c0-0.1,0-0.2,0-0.3C71,19.2,71,19,71,18.6z"/>
		<path class="st7" d="M76.1,20.3c0,0.8-0.2,1.4-0.6,1.8s-1,0.7-1.8,0.7h-0.5v-1.6h0.6c0.7,0,1-0.2,1-0.7c0-0.1,0-0.3-0.1-0.6
			c-0.1-0.3-0.1-0.5-0.1-0.6c0-0.2,0.1-0.3,0.2-0.5c0.1-0.1,0.3-0.2,0.5-0.2C75.8,18.6,76.1,19.2,76.1,20.3z M75.7,16.6
			c0,0.2-0.1,0.4-0.2,0.6s-0.3,0.2-0.6,0.2s-0.4-0.1-0.6-0.2c-0.2-0.2-0.2-0.3-0.2-0.6s0.1-0.4,0.2-0.6c0.2-0.2,0.3-0.2,0.6-0.2
			s0.4,0.1,0.6,0.2C75.7,16.1,75.7,16.4,75.7,16.6z"/>
		<path class="st7" d="M81.6,20.9c0,1-0.4,2-1.1,2.9c-0.7,0.8-1.5,1.4-2.6,1.8c-0.1,0-0.2,0.1-0.4,0.1c-0.2,0-0.3-0.1-0.5-0.2
			c-0.1-0.1-0.2-0.3-0.2-0.5c0-0.3,0.2-0.5,0.5-0.6c0.6-0.3,1.2-0.6,1.7-1c0.6-0.5,1-1,1.2-1.5c-0.2,0-0.4,0.1-0.7,0.1
			c-0.5,0-0.9-0.1-1.2-0.4c-0.3-0.3-0.4-0.7-0.4-1.2s0.2-1,0.5-1.5s0.8-0.8,1.2-0.8c0.7,0,1.2,0.3,1.6,0.9
			C81.5,19.6,81.6,20.2,81.6,20.9z M80.3,20.5c0-0.2-0.1-0.4-0.2-0.6s-0.3-0.3-0.5-0.3c-0.1,0-0.3,0.1-0.4,0.2S79,20,79,20.1
			c0,0.3,0.2,0.5,0.6,0.5C79.9,20.6,80.1,20.5,80.3,20.5z"/>
		<path class="st7" d="M89,22.8h-0.5c-0.5,0-0.9-0.2-1.1-0.5c-0.3,0.9-0.8,1.6-1.5,2.2c-0.6,0.5-1.3,0.9-2.3,1.3
			c-0.1,0.1-0.3,0.1-0.4,0.1c-0.2,0-0.3-0.1-0.5-0.2c-0.1-0.1-0.2-0.3-0.2-0.4c0-0.3,0.2-0.6,0.6-0.8c0.8-0.4,1.4-0.7,1.9-1.1
			c0.7-0.5,1.1-1.1,1.2-1.7c0-0.1,0-0.2,0-0.3c0-0.4-0.1-0.7-0.2-1.2c0-0.1,0-0.2,0-0.2c0-0.2,0.1-0.4,0.2-0.5s0.3-0.2,0.5-0.2
			c0.3,0,0.5,0.1,0.7,0.5c0,0,0.1,0.3,0.4,0.8c0.2,0.3,0.6,0.5,1.1,0.5H89V22.8z M86.9,17.5c0,0.2-0.1,0.4-0.2,0.6
			c-0.2,0.2-0.3,0.2-0.5,0.2s-0.4-0.1-0.6-0.2s-0.2-0.3-0.2-0.6s0.1-0.4,0.2-0.6s0.3-0.2,0.6-0.2s0.4,0.1,0.6,0.2
			S86.9,17.3,86.9,17.5z"/>
		<path class="st7" d="M92.8,20.1c0,1.8-1.1,2.7-3.4,2.7h-0.8v-1.6h1c1.4,0,2.2-0.3,2.1-1c-0.1,0.1-0.3,0.2-0.5,0.3
			c-0.3,0.1-0.5,0.1-0.6,0.1c-0.5,0-0.9-0.2-1.2-0.5c-0.2-0.3-0.3-0.5-0.3-0.9c0-0.5,0.1-1,0.4-1.5c0.3-0.6,0.8-0.9,1.4-0.9
			c0.7,0,1.2,0.4,1.5,1.2C92.7,18.6,92.8,19.3,92.8,20.1z M91.4,15.1c0,0.2-0.1,0.4-0.2,0.6c-0.2,0.2-0.3,0.2-0.6,0.2
			s-0.4-0.1-0.6-0.2s-0.2-0.3-0.2-0.6s0.1-0.4,0.2-0.6s0.3-0.2,0.6-0.2s0.4,0.1,0.6,0.2C91.3,14.7,91.4,14.9,91.4,15.1z M91.4,18.9
			c0-0.2-0.1-0.4-0.2-0.5s-0.3-0.2-0.5-0.2c-0.1,0-0.3,0.1-0.4,0.2s-0.2,0.3-0.2,0.4c0,0.3,0.2,0.5,0.5,0.5
			C91.2,19.3,91.4,19.2,91.4,18.9z"/>
		<path class="st7" d="M95.4,22.3c0,0.5-0.2,0.7-0.6,0.7s-0.6-0.2-0.6-0.7L94,15.5c0-0.3,0-0.5,0.2-0.7c0.1-0.3,0.3-0.4,0.6-0.4
			c0.5,0,0.7,0.3,0.7,1L95.4,22.3L95.4,22.3z"/>
		<path class="st7" d="M103.6,22.4c-0.3,0.2-0.8,0.4-1.4,0.6c-0.5,0.1-0.9,0.2-1.4,0.2c-0.9,0-1.4-0.2-1.3-0.7c0-0.4,0.4-0.6,1-0.7
			c0.2,0,0.7-0.1,1.5-0.1c0.7-0.1,1.1-0.3,1.1-0.6c0-0.5-0.5-1.1-1.5-2c-0.4-0.3-0.6-0.6-0.5-0.9c0-0.2,0.1-0.4,0.3-0.5
			c0.1-0.1,0.3-0.2,0.5-0.2c0.5,0,1,0.5,1.6,1.4s0.9,1.6,0.9,2.1C104.3,21.6,104.1,22.1,103.6,22.4z"/>
		<path class="st7" d="M110.9,22.8h-1.1c-0.5,1.5-1.7,2.7-3.6,3.5c-0.1,0-0.2,0.1-0.3,0.1c-0.2,0-0.3-0.1-0.5-0.2
			c-0.1-0.1-0.2-0.3-0.2-0.5c0-0.3,0.2-0.6,0.5-0.7c1.4-0.6,2.3-1.4,2.7-2.2c-0.7,0-1.3-0.1-1.6-0.3c-0.5-0.2-0.7-0.7-0.7-1.3
			c0-0.5,0.2-1,0.5-1.5s0.7-0.8,1.2-0.8c0.6,0,1,0.2,1.4,0.7c0.3,0.4,0.5,1,0.6,1.5h1L110.9,22.8L110.9,22.8z M108.5,21.3
			c0-0.2-0.1-0.4-0.2-0.6s-0.3-0.3-0.5-0.3c-0.1,0-0.2,0-0.3,0.1s-0.1,0.2-0.1,0.3c0,0.2,0.2,0.4,0.5,0.5
			C107.9,21.3,108.1,21.3,108.5,21.3z"/>
		<path class="st7" d="M114.6,22.8h-0.4c-0.3,0-0.6-0.1-0.9-0.2c-0.3-0.2-0.5-0.4-0.6-0.6c-0.3,0.6-0.9,0.9-1.7,0.9h-0.5v-1.6h0.4
			c0.5,0,0.7-0.1,0.9-0.4c0.1-0.2,0.1-0.5,0.1-1l-0.1-4.5c0-0.2,0.1-0.4,0.2-0.6c0.1-0.2,0.3-0.3,0.5-0.3s0.4,0.1,0.5,0.2
			c0.1,0.2,0.2,0.3,0.2,0.6v4.3c0,1.1,0.3,1.7,1,1.7h0.3L114.6,22.8L114.6,22.8z"/>
		<path class="st7" d="M117.1,20.3c0,0.8-0.2,1.4-0.6,1.8s-1,0.7-1.8,0.7h-0.5v-1.6h0.6c0.7,0,1-0.2,1-0.7c0-0.1,0-0.3-0.1-0.6
			c-0.1-0.3-0.1-0.5-0.1-0.6c0-0.2,0.1-0.3,0.2-0.5c0.1-0.1,0.3-0.2,0.5-0.2C116.8,18.6,117.1,19.2,117.1,20.3z M116.7,16.6
			c0,0.2-0.1,0.4-0.2,0.6s-0.3,0.2-0.6,0.2s-0.4-0.1-0.6-0.2c-0.2-0.2-0.2-0.3-0.2-0.6s0.1-0.4,0.2-0.6c0.2-0.2,0.3-0.2,0.6-0.2
			s0.4,0.1,0.6,0.2C116.7,16.1,116.7,16.4,116.7,16.6z"/>
		<path class="st7" d="M119.7,22.3c0,0.5-0.2,0.7-0.6,0.7s-0.6-0.2-0.6-0.7l-0.3-6.8c0-0.3,0-0.5,0.2-0.7c0.1-0.3,0.3-0.4,0.6-0.4
			c0.5,0,0.7,0.3,0.7,1C119.7,15.4,119.7,22.3,119.7,22.3z"/>
		<path class="st7" d="M125,22.4c-0.3,0.2-0.8,0.4-1.4,0.6c-0.5,0.1-0.9,0.2-1.4,0.2c-0.9,0-1.4-0.2-1.3-0.7c0-0.4,0.4-0.6,1-0.7
			c0.2,0,0.7-0.1,1.5-0.1c0.7-0.1,1.1-0.3,1.1-0.6c0-0.5-0.5-1.1-1.5-2c-0.4-0.3-0.6-0.6-0.5-0.9c0-0.2,0.1-0.4,0.3-0.5
			c0.1-0.1,0.3-0.2,0.5-0.2c0.5,0,1,0.5,1.6,1.4s0.9,1.6,0.9,2.1C125.7,21.6,125.4,22.1,125,22.4z"/>
	</g>
</g>
</svg>
