<?xml version="1.0" encoding="utf-8"?>
<!-- Generator: Adobe Illustrator 25.2.0, SVG Export Plug-In . SVG Version: 6.00 Build 0)  -->
<svg version="1.1" xmlns="http://www.w3.org/2000/svg" xmlns:xlink="http://www.w3.org/1999/xlink" x="0px" y="0px"
	 viewBox="0 0 135 40" style="enable-background:new 0 0 135 40;" xml:space="preserve">
<style type="text/css">
	.st0{opacity:0.4;}
	.st1{fill:#FEFEFE;stroke:#000000;stroke-width:0.25;stroke-miterlimit:10;}
	.st2{fill:url(#SVGID_1_);}
	.st3{fill:url(#_Path__1_);}
	.st4{fill:url(#SVGID_2_);}
	.st5{fill:url(#SVGID_3_);}
	.st6{fill:url(#SVGID_4_);}
	.st7{fill:url(#SVGID_5_);}
	.st8{fill:url(#SVGID_6_);}
	.st9{fill:url(#SVGID_7_);}
	.st10{fill:url(#SVGID_8_);}
	.st11{fill:url(#SVGID_9_);}
	.st12{fill:url(#SVGID_10_);}
	.st13{fill:url(#SVGID_11_);}
	.st14{fill:url(#SVGID_12_);}
	.st15{fill:url(#SVGID_13_);}
	.st16{fill:#3F3F3F;}
</style>
<g id="Layer_1">
	<g id="Layer_1_1_" class="st0">
		<g id="background">
			<path class="st1" d="M133.4,39.2H1.6c-0.6,0-1.1-0.5-1.1-1.1V1.9c0-0.6,0.5-1.1,1.1-1.1h131.8c0.6,0,1.1,0.5,1.1,1.1v36.2
				C134.5,38.7,134,39.2,133.4,39.2z"/>
		</g>
	</g>
	<g id="Layer_2_1_">
		<g>
			
				<radialGradient id="SVGID_1_" cx="-15056.9072" cy="-7912.7461" r="16.0821" fx="-15057.9336" fy="-7912.7461" gradientTransform="matrix(0.7398 2.920152e-02 -4.866920e-02 1.0902 10788.6904 9078.6768)" gradientUnits="userSpaceOnUse">
				<stop  offset="0.1" style="stop-color:#FFEA00"/>
				<stop  offset="0.17" style="stop-color:#FFDE00"/>
				<stop  offset="0.28" style="stop-color:#FFBF00"/>
				<stop  offset="0.43" style="stop-color:#FF8E00"/>
				<stop  offset="0.77" style="stop-color:#FF272D"/>
				<stop  offset="0.87" style="stop-color:#E0255A"/>
				<stop  offset="0.95" style="stop-color:#CC2477"/>
				<stop  offset="1" style="stop-color:#C42482"/>
			</radialGradient>
			<path class="st2" d="M29,5.2c-0.8,1-1.2,3.1-0.4,5.4s2.1,1.7,2.9,4c1.1,3,0.6,7,0.6,7s1.3,3.7,2.2-0.2C36.3,13.9,29,7,29,5.2z"/>
			
				<radialGradient id="_Path__1_" cx="-8358.5332" cy="-7381.8374" r="28.2217" gradientTransform="matrix(1.1973 0 0 1.1973 10031.5586 8845.5225)" gradientUnits="userSpaceOnUse">
				<stop  offset="0" style="stop-color:#00CCDA"/>
				<stop  offset="0.22" style="stop-color:#0083FF"/>
				<stop  offset="0.26" style="stop-color:#007AF9"/>
				<stop  offset="0.33" style="stop-color:#0060E8"/>
				<stop  offset="0.33" style="stop-color:#005FE7"/>
				<stop  offset="0.44" style="stop-color:#2639AD"/>
				<stop  offset="0.52" style="stop-color:#401E84"/>
				<stop  offset="0.57" style="stop-color:#4A1475"/>
			</radialGradient>
			<path id="_Path_" class="st3" d="M18.8,35.8c8.5,0,15.4-6.9,15.4-15.5S27.3,4.9,18.8,4.9S3.4,11.8,3.4,20.4
				C3.4,28.9,10.3,35.8,18.8,35.8z"/>
			
				<linearGradient id="SVGID_2_" gradientUnits="userSpaceOnUse" x1="20.8597" y1="783.3189" x2="14.2131" y2="761.577" gradientTransform="matrix(1 0 0 1 0 -756)">
				<stop  offset="0" style="stop-color:#000F43;stop-opacity:0.4"/>
				<stop  offset="0.48" style="stop-color:#001962;stop-opacity:0.17"/>
				<stop  offset="1" style="stop-color:#002079;stop-opacity:0"/>
			</linearGradient>
			<path class="st4" d="M30.4,29.9c-0.3,0.2-0.7,0.4-1,0.6c0.5-0.7,0.9-1.4,1.3-2.2c0.3-0.4,0.6-0.7,0.9-1.1
				c0.1-0.2,0.3-0.4,0.4-0.7c0.9-1.6,1.8-4.1,1.8-6.7v-0.2c0-0.6-0.1-1.3-0.2-1.9c0,0.1,0,0.1,0,0.2v-0.1c0,0.1,0,0.1,0,0.2
				c0.2,1.5,0.1,3-0.6,4c0,0,0,0,0,0.1c0.3-1.6,0.4-3.5,0.1-5.3c0,0-0.1-0.9-1.2-3.6c-0.6-1.5-1.7-2.8-2.7-3.7
				c-0.9-1.1-1.6-1.8-2.1-2.2c-0.9-0.9-1.3-1.7-1.4-2.1c-0.1-0.1-1.8-1.7-2-1.8c-0.7,1.2-3.1,4.8-2,8.2c0.5,1.5,1.8,3.1,3.1,4
				c0.1,0.1,0.8,0.9,1.2,2.7c0.4,1.9,0.2,3.3-0.6,5.5c-0.9,1.9-3.1,3.8-5.2,4c-4.5,0.4-6.2-2.3-6.2-2.3c1.6,0.6,3.4,0.5,4.5-0.2
				c1.1-0.7,1.7-1.2,2.3-1c0.5,0.2,0.9-0.4,0.6-1c-0.6-0.9-1.7-1.4-2.8-1.2c-1.1,0.2-2.1,1-3.5,0.2c-0.1-0.1-0.2-0.1-0.3-0.2
				s0.3,0.1,0.2,0c-0.3-0.2-0.8-0.5-0.9-0.6l0.2,0.1c-1.3-1.1-1.2-1.8-1.1-2.3c0-0.4,0.3-0.9,0.7-1c0.2,0.1,0.3,0.2,0.3,0.2
				s-0.1-0.2-0.1-0.3c0,0,0,0,0.1,0c0.2,0.1,0.5,0.3,0.7,0.4c0.2,0.2,0.3,0.3,0.3,0.3s0.1,0,0-0.2c0-0.1-0.1-0.3-0.3-0.5l0,0
				c0.1,0.1,0.3,0.2,0.4,0.3c0.1-0.2,0.2-0.5,0.2-1c0-0.3,0-0.4-0.1-0.5s0-0.2,0.1,0c0-0.1,0-0.2-0.1-0.3l0,0
				c0.1-0.4,2.4-1.4,2.5-1.5c0.3-0.2,0.5-0.4,0.7-0.7c0.1-0.2,0.2-0.5,0.2-0.9c0-0.3-0.1-0.5-2.4-0.7c-0.6-0.1-1-0.5-1.2-0.9
				c0-0.1-0.1-0.2-0.1-0.3S15,11.4,15,11.3c0.4-1.1,1-2,1.9-2.7c0.1-0.1-0.2,0-0.2,0c0.1-0.1,0.4-0.2,0.5-0.2s-0.4-0.2-0.8-0.2
				c-0.4,0.1-0.5,0.1-0.7,0.2c0.1-0.1,0.4-0.2,0.3-0.2c-0.5,0.1-1,0.3-1.5,0.6c0-0.1,0-0.1,0-0.2c-0.2,0.1-0.8,0.5-0.9,0.8
				c0-0.1,0-0.1,0-0.2c-0.2,0.1-0.3,0.3-0.5,0.5H13c-1.3-0.5-2.4-0.6-3.4-0.3C9.4,9.2,9.3,9.3,8.8,8.3c0-0.1,0,0.1,0,0
				c-0.1-0.2,0.1,0.3,0,0C8,8.9,6.9,9.7,6.4,10.2c0,0,0.6-0.2,0,0c-0.2,0.1-0.2,0.2-0.2,1.3c0,0.1,0,0.2,0,0.3
				c-0.4,0.5-0.7,1-0.8,1.2c-0.5,0.9-1.1,2.3-1.7,4.6c0.2-0.6,0.5-1.2,0.9-1.7c-0.5,1.2-0.9,3.1-1,5.9C3.7,21.2,3.9,20.6,4,20
				c-0.1,2.4,0.3,4.8,1.2,7c0.3,0.8,0.9,2,1.8,3.3c2.9,3,6.9,4.9,11.4,4.9C23.3,35.2,27.5,33.2,30.4,29.9z"/>
			
				<radialGradient id="SVGID_3_" cx="-9355.3789" cy="-6443.2485" r="9.5195" gradientTransform="matrix(1.1875 0.1168 -0.1168 1.1875 10392.6836 8768.7607)" gradientUnits="userSpaceOnUse">
				<stop  offset="0" style="stop-color:#FFEA00"/>
				<stop  offset="0.5" style="stop-color:#FF272D"/>
				<stop  offset="1" style="stop-color:#C42482"/>
			</radialGradient>
			<path class="st5" d="M26.9,32.1c5.7-0.7,8.2-6.5,4.9-6.6C29,25.4,24.2,32.3,26.9,32.1z"/>
			
				<radialGradient id="SVGID_4_" cx="-9356.2402" cy="-6452.376" r="15.8966" gradientTransform="matrix(1.1875 0.1168 -0.1168 1.1875 10392.6836 8768.7607)" gradientUnits="userSpaceOnUse">
				<stop  offset="0" style="stop-color:#FFE900"/>
				<stop  offset="0.16" style="stop-color:#FFAF0E"/>
				<stop  offset="0.32" style="stop-color:#FF7A1B"/>
				<stop  offset="0.47" style="stop-color:#FF4E26"/>
				<stop  offset="0.62" style="stop-color:#FF2C2E"/>
				<stop  offset="0.76" style="stop-color:#FF1434"/>
				<stop  offset="0.89" style="stop-color:#FF0538"/>
				<stop  offset="1" style="stop-color:#FF0039"/>
			</radialGradient>
			<path class="st6" d="M32.3,24.3c3.9-2.3,2.9-7.2,2.9-7.2s-1.5,1.7-2.5,4.5C31.6,24.4,29.9,25.7,32.3,24.3z"/>
			
				<radialGradient id="SVGID_5_" cx="-9353.9922" cy="-6437.6401" r="14.5868" gradientTransform="matrix(1.1875 0.1168 -0.1168 1.1875 10392.6836 8768.7607)" gradientUnits="userSpaceOnUse">
				<stop  offset="0" style="stop-color:#FF272D"/>
				<stop  offset="0.5" style="stop-color:#C42482"/>
				<stop  offset="0.99" style="stop-color:#620700"/>
			</radialGradient>
			<path class="st7" d="M19.9,35c5.4,1.7,10.1-2.5,7.2-4C24.5,29.7,17.4,34.2,19.9,35z"/>
			
				<radialGradient id="SVGID_6_" cx="68.3381" cy="798.6368" r="27.8989" fx="69.3359" fy="798.1435" gradientTransform="matrix(0.9734 0 0 0.9734 -39.4744 -761.7491)" gradientUnits="userSpaceOnUse">
				<stop  offset="0.16" style="stop-color:#FFEA00"/>
				<stop  offset="0.23" style="stop-color:#FFDE00"/>
				<stop  offset="0.37" style="stop-color:#FFBF00"/>
				<stop  offset="0.54" style="stop-color:#FF8E00"/>
				<stop  offset="0.76" style="stop-color:#FF272D"/>
				<stop  offset="0.8" style="stop-color:#F92433"/>
				<stop  offset="0.84" style="stop-color:#E91C45"/>
				<stop  offset="0.89" style="stop-color:#CF0E62"/>
				<stop  offset="0.94" style="stop-color:#B5007F"/>
			</radialGradient>
			<path class="st8" d="M32.7,26.4c0.1-0.2,0.3-0.8,0.5-1c1-1.6,1-2.8,1-2.8c0.6-2.9,0.5-4.1,0.2-6.2c-0.3-1.8-1.5-4.3-2.6-5.5
				c-1.1-1.3-0.3-0.8-1.4-1.8c-0.9-1-1.9-2.1-2.4-2.5c-3.6-3-3.5-3.7-3.5-3.8c0,0,0,0-0.1,0.1c0-0.2-0.1-0.3-0.1-0.3s-2,2-2.4,5.3
				c-0.3,2.1,0.5,4.4,1.7,5.8c0.6,0.7,1.3,1.4,2,2l0,0c0.9,1.3,1.4,2.8,1.4,4.5c0,4.2-3.4,7.6-7.6,7.6c-0.6,0-1.2-0.1-1.7-0.2
				c-2-0.4-3.1-1.4-3.7-2.1c-0.3-0.4-0.5-0.7-0.5-0.7c1.8,0.6,3.7,0.5,5-0.2c1.2-0.7,1.9-1.2,2.5-1s1-0.4,0.6-1s-1.5-1.4-3.1-1.2
				c-1.2,0.2-2.3,1-3.9,0.2c-0.1-0.1-0.2-0.1-0.3-0.2s0.3,0.1,0.2,0c-0.3-0.2-0.9-0.5-1-0.6l0.2,0.1c-1.5-1.1-1.3-1.8-1.3-2.3
				c0-0.4,0.3-0.8,0.8-1c0.2,0.1,0.3,0.2,0.3,0.2s-0.1-0.2-0.1-0.3c0,0,0,0,0.1,0c0.2,0.1,0.6,0.3,0.8,0.4c0.3,0.2,0.4,0.3,0.4,0.3
				s0.1,0,0-0.2c0-0.1-0.1-0.3-0.4-0.5l0,0c0.2,0.1,0.3,0.2,0.5,0.3c0.1-0.2,0.2-0.5,0.2-1c0-0.3,0-0.4-0.1-0.5s0-0.2,0.1,0
				c0-0.1-0.1-0.2-0.1-0.3l0,0c0.1-0.4,2.6-1.4,2.8-1.5c0.3-0.2,0.5-0.4,0.7-0.7c0.1-0.2,0.2-0.5,0.3-0.9c0-0.2-0.1-0.3-0.7-0.5
				c-0.4-0.1-1-0.2-2-0.3c-0.7-0.1-1.1-0.5-1.3-0.9c0-0.1-0.1-0.2-0.1-0.2c0-0.1-0.1-0.2-0.1-0.3c0.4-1.1,1.2-2,2.1-2.6
				c0.1-0.1-0.2,0-0.2,0c0.1-0.1,0.5-0.2,0.6-0.2s-0.4-0.2-0.9-0.2c-0.5,0.1-0.6,0.1-0.8,0.2c0.1-0.1,0.4-0.2,0.3-0.2
				c-0.5,0.1-1.1,0.3-1.6,0.6c0-0.1,0-0.1,0-0.2c-0.2,0.1-0.9,0.5-1,0.8c0-0.1,0-0.1,0-0.2c-0.2,0.1-0.4,0.3-0.5,0.5l0,0
				C11.2,8.8,9.9,8.8,8.9,9C8.6,8.8,8.3,8.5,7.7,7.4c0-0.1-0.1,0.1-0.1,0.1C7.4,7,7.3,6.2,7.3,5.7c0,0-0.4,0.2-0.8,1
				c0,0.1,0,0.2-0.1,0.3c0,0,0-0.3,0-0.2c0,0.1-0.2,0.2-0.2,0.4C6.1,7.4,6.1,7.4,6,7.6l0,0c0-0.1,0-0.2,0-0.2
				C5.8,7.8,5.7,8.1,5.6,8.5c-0.2,0.6-0.4,1.4-0.5,2.6c0,0.1,0,0.2,0,0.3c-0.5,0.5-0.8,1-0.9,1.2c-0.6,0.9-1.2,2.3-1.8,4.5
				c0.3-0.6,0.6-1.2,1-1.7c-0.5,1.2-1,3-1.1,5.9c0.1-0.6,0.3-1.2,0.5-1.7c-0.1,1.9,0.1,4.3,1.3,6.9c0.7,1.6,2.4,4.7,6.4,7.2l0,0
				c0,0,1.4,1,3.7,1.8c0.2,0.1,0.3,0.1,0.5,0.2c-0.1,0-0.1-0.1-0.2-0.1c1.6,0.5,3.2,0.7,4.8,0.7c6.1,0,7.9-2.4,7.9-2.4l0,0
				c0.1-0.1,0.2-0.2,0.2-0.2c-1,0.9-3.2,1-4,0.9c1.4-0.4,2.3-0.8,4.1-1.4c0.2-0.1,0.4-0.2,0.6-0.3h0.1c0,0,0.1,0,0.1-0.1
				c0.9-0.4,1.7-0.9,2.4-1.5c1.8-1.4,2.2-2.8,2.4-3.7c0,0.1-0.1,0.3-0.2,0.4c-0.5,1-1.5,1.6-2.6,2.1c0.5-0.7,1-1.4,1.5-2.2
				C32.3,27.3,32.4,26.8,32.7,26.4z"/>
			
				<radialGradient id="SVGID_7_" cx="66.7383" cy="785.6982" r="31.7964" gradientTransform="matrix(0.9734 0 0 0.9734 -39.4744 -761.7491)" gradientUnits="userSpaceOnUse">
				<stop  offset="0.28" style="stop-color:#FFEA00"/>
				<stop  offset="0.4" style="stop-color:#FFDD00"/>
				<stop  offset="0.63" style="stop-color:#FFBA00"/>
				<stop  offset="0.86" style="stop-color:#FF9100"/>
				<stop  offset="0.93" style="stop-color:#FF6711"/>
				<stop  offset="0.99" style="stop-color:#FF4A1D"/>
			</radialGradient>
			<path class="st9" d="M30.5,29.8c0.7-0.8,1.4-1.7,1.9-2.8c1.3-2.7,3.3-7.2,1.7-11.8c-1.2-3.7-2.9-5.7-5.1-7.7
				c-3.5-3.2-4.5-4.6-4.5-5.5c0,0-4,4.5-2.3,9.2s5.3,4.5,7.7,9.4c2.8,5.8-2.2,12-6.4,13.8c0.3-0.1,9.3-2.1,9.7-7.3
				C33.3,27.2,33.1,28.7,30.5,29.8z"/>
			
				<linearGradient id="SVGID_8_" gradientUnits="userSpaceOnUse" x1="-9414.9551" y1="-6467.7949" x2="-9404.2949" y2="-6470.5117" gradientTransform="matrix(1.22 0.12 -0.12 1.22 10717.4795 9035.1201)">
				<stop  offset="0" style="stop-color:#C42482;stop-opacity:0.5"/>
				<stop  offset="0.47" style="stop-color:#FF272D;stop-opacity:0.5"/>
				<stop  offset="0.49" style="stop-color:#FF2C2C;stop-opacity:0.51"/>
				<stop  offset="0.68" style="stop-color:#FF7A1A;stop-opacity:0.72"/>
				<stop  offset="0.83" style="stop-color:#FFB20D;stop-opacity:0.87"/>
				<stop  offset="0.94" style="stop-color:#FFD605;stop-opacity:0.96"/>
				<stop  offset="1" style="stop-color:#FFE302"/>
			</linearGradient>
			<path class="st10" d="M18.8,13.1c0-0.3-0.1-0.5-2.7-0.7c-1-0.1-1.4-1-1.6-1.5c-0.4,1-0.5,2-0.4,3.2c0.1,0.8,0.6,1.7,0.8,2.1
				l0.1-0.1c0.5-0.5,2.5-1.3,2.7-1.4C18,14.6,18.8,14,18.8,13.1z"/>
			
				<linearGradient id="SVGID_9_" gradientUnits="userSpaceOnUse" x1="112.6231" y1="-751.4388" x2="110.7285" y2="-756.2942" gradientTransform="matrix(0.99 0.1 -0.1 0.99 -179.38 743.8099)">
				<stop  offset="0" style="stop-color:#891551;stop-opacity:0.6"/>
				<stop  offset="1" style="stop-color:#C42482;stop-opacity:0"/>
			</linearGradient>
			<path class="st11" d="M7.7,7.4C7.7,7.4,7.7,7.6,7.7,7.4C7.4,7,7.3,6.3,7.4,5.7c0,0-0.4,0.2-0.8,1C6.5,6.8,6.5,6.9,6.4,7
				c0,0,0-0.3,0-0.2c0,0.1-0.2,0.2-0.2,0.4C6.1,7.3,6.1,7.4,6,7.6c0,0.1,0-0.2,0-0.2c-0.8,1.6-1,4-0.9,3.9C6.9,9.4,8.9,9,8.9,9
				C8.7,8.9,8.2,8.4,7.7,7.4L7.7,7.4z"/>
			
				<linearGradient id="SVGID_10_" gradientUnits="userSpaceOnUse" x1="-205.5886" y1="863.9556" x2="-202.3212" y2="867.6663" gradientTransform="matrix(0.99 0.1 -0.1 0.99 299.75 -816.6)">
				<stop  offset="1.000000e-02" style="stop-color:#891551;stop-opacity:0.5"/>
				<stop  offset="0.48" style="stop-color:#FF272D;stop-opacity:0.5"/>
				<stop  offset="1" style="stop-color:#FF272D;stop-opacity:0"/>
			</linearGradient>
			<path class="st12" d="M14.4,27c-2.4-1-5.2-2.5-5.1-5.8c0.1-4.4,4.1-3.5,4.1-3.5c-0.1,0-0.5,0.3-0.7,0.6c-0.1,0.4-0.4,1.2,0.4,2.1
				c1.3,1.4-2.7,3.3,3.4,6.9C16.7,27.5,15.1,27.3,14.4,27L14.4,27z"/>
			
				<linearGradient id="SVGID_11_" gradientUnits="userSpaceOnUse" x1="-199.3034" y1="870.3649" x2="-199.301" y2="867.7687" gradientTransform="matrix(0.99 0.1 -0.1 0.99 299.75 -816.6)">
				<stop  offset="0" style="stop-color:#C42482"/>
				<stop  offset="8.000000e-02" style="stop-color:#C42482;stop-opacity:0.81"/>
				<stop  offset="0.21" style="stop-color:#C42482;stop-opacity:0.57"/>
				<stop  offset="0.33" style="stop-color:#C42482;stop-opacity:0.36"/>
				<stop  offset="0.45" style="stop-color:#C42482;stop-opacity:0.2"/>
				<stop  offset="0.56" style="stop-color:#C42482;stop-opacity:9.000000e-02"/>
				<stop  offset="0.67" style="stop-color:#C42482;stop-opacity:2.000000e-02"/>
				<stop  offset="0.77" style="stop-color:#C42482;stop-opacity:0"/>
			</linearGradient>
			<path class="st13" d="M13.5,24.8c1.7,0.6,3.7,0.5,4.9-0.2c0.8-0.5,1.8-1.2,2.5-1c-0.5-0.2-1-0.3-1.5-0.3c-0.1,0-0.2,0-0.3,0
				c-0.2,0-0.4,0-0.5,0c-0.3,0-0.6,0.2-1,0.2l0.3-0.1c-0.2,0-0.3,0-0.5,0.1c-0.1,0-0.2,0-0.3,0c-3.6,0.3-6.6-1.9-6.6-1.9
				C10.2,22.5,11.6,24.2,13.5,24.8L13.5,24.8z"/>
			
				<linearGradient id="SVGID_12_" gradientUnits="userSpaceOnUse" x1="23.7558" y1="759.2189" x2="34.3679" y2="782.9489" gradientTransform="matrix(1 0 0 1 0 -756)">
				<stop  offset="0" style="stop-color:#FFF14F"/>
				<stop  offset="0.27" style="stop-color:#FFEE4C"/>
				<stop  offset="0.45" style="stop-color:#FFE643"/>
				<stop  offset="0.61" style="stop-color:#FFD834"/>
				<stop  offset="0.76" style="stop-color:#FFC41E"/>
				<stop  offset="0.89" style="stop-color:#FFAB02"/>
				<stop  offset="0.9" style="stop-color:#FFA900"/>
				<stop  offset="0.95" style="stop-color:#FFA000"/>
				<stop  offset="1" style="stop-color:#FF9100"/>
			</linearGradient>
			<path class="st14" d="M30.5,29.9c3.6-3.6,5.4-7.9,4.7-12.7c0,0,0.3,2.5-0.9,5c0.6-2.5,0.6-5.6-0.9-8.8c-2-4.3-5.3-6.5-6.5-7.4
				C25,4.5,24.2,3,24.2,2.7c-0.6,1.2-2.3,5.1-0.2,8.6c2,3.2,5.1,4.2,7.2,7.1C35.2,23.9,30.5,29.9,30.5,29.9z"/>
			
				<linearGradient id="SVGID_13_" gradientUnits="userSpaceOnUse" x1="25.871" y1="772.8715" x2="20.8444" y2="786.3685" gradientTransform="matrix(1 0 0 1 0 -756)">
				<stop  offset="0" style="stop-color:#FF8E00"/>
				<stop  offset="4.000000e-02" style="stop-color:#FF8E00;stop-opacity:0.86"/>
				<stop  offset="8.000000e-02" style="stop-color:#FF8E00;stop-opacity:0.73"/>
				<stop  offset="0.13" style="stop-color:#FF8E00;stop-opacity:0.63"/>
				<stop  offset="0.18" style="stop-color:#FF8E00;stop-opacity:0.56"/>
				<stop  offset="0.23" style="stop-color:#FF8E00;stop-opacity:0.51"/>
				<stop  offset="0.28" style="stop-color:#FF8E00;stop-opacity:0.5"/>
				<stop  offset="0.39" style="stop-color:#FF8E00;stop-opacity:0.48"/>
				<stop  offset="0.52" style="stop-color:#FF8E00;stop-opacity:0.42"/>
				<stop  offset="0.68" style="stop-color:#FF8E00;stop-opacity:0.31"/>
				<stop  offset="0.84" style="stop-color:#FF8E00;stop-opacity:0.17"/>
				<stop  offset="1" style="stop-color:#FF8E00;stop-opacity:0"/>
			</linearGradient>
			<path class="st15" d="M30,20.6c-1.3-2.6-2.8-3.7-4.3-5c0.2,0.2,0.2,0.3,0.3,0.5c1.3,1.4,3.2,4.8,1.8,9.1
				c-2.7,8.1-13.2,4.3-14.3,3.2c0.5,4.7,8.3,6.9,13.4,3.9C29.7,29.5,32,24.9,30,20.6z"/>
		</g>
	</g>
</g>
<g id="text">
	<g>
		<path class="st16" d="M51.1,23.4h-0.3c-0.5,0-0.9-0.2-1.2-0.7c-0.2,0.4-0.6,0.7-1.2,0.7c-0.6,0-1-0.2-1.2-0.7
			c-0.2,0.5-0.6,0.7-1,0.7c-0.4,0-0.6-0.1-0.8-0.2c0,1-0.3,1.8-0.8,2.5c-0.6,0.7-1.4,1.1-2.6,1.1c-1,0-1.7-0.3-2.2-1
			c-0.4-0.5-0.6-1.1-0.6-1.9c0-1.1,0.3-1.7,0.8-1.7c0.3,0,0.4,0.2,0.4,0.5c0,0.1,0,0.3-0.1,0.5s-0.1,0.4-0.1,0.5
			c0,0.5,0.2,1,0.5,1.3c0.3,0.3,0.8,0.4,1.3,0.4c0.7,0,1.2-0.2,1.6-0.5c0.4-0.4,0.6-0.9,0.6-1.6c0-0.2-0.1-0.5-0.2-0.9
			s-0.2-0.7-0.2-0.8c0-0.4,0.2-0.6,0.6-0.6c0.2,0,0.3,0.1,0.4,0.3c0.2,0.3,0.3,0.4,0.4,0.5C45.4,22,45.7,22,46,22
			c0.4,0,0.6-0.2,0.7-0.7c0.1-0.4,0.2-0.6,0.5-0.6c0.3,0,0.4,0.2,0.5,0.6c0.1,0.5,0.3,0.7,0.7,0.7c0.4,0,0.7-0.2,0.7-0.7
			c0.1-0.4,0.2-0.5,0.5-0.5c0.3,0,0.5,0.2,0.5,0.6c0,0.3,0.1,0.4,0.2,0.5c0.1,0.1,0.3,0.1,0.6,0.1h0.2V23.4z"/>
		<path class="st16" d="M55.6,17.3c-1.1,0.2-2.1,0.6-3.1,0.9c-0.1,0-0.1,0.1-0.1,0.2s0,0.2,0.1,0.2c1.4,1.1,2.2,2,2.2,2.8
			c0,0.7-0.3,1.3-0.9,1.5c-0.5,0.2-1.3,0.4-2.5,0.4h-0.4V22h0.3c0.8,0,1.2,0,1.4,0c0.7-0.1,1-0.2,1-0.5c0-0.2-0.3-0.6-1-1.1
			c-0.7-0.6-1.2-1.1-1.3-1.3c-0.1-0.1-0.1-0.3-0.1-0.5c0-0.5,0.2-0.8,0.5-1c0.8-0.5,1.9-0.9,3.6-1.3c0.1,0,0.2,0,0.3,0
			c0.4,0,0.7,0.2,0.7,0.6C56.1,17.1,55.9,17.3,55.6,17.3z"/>
		<path class="st16" d="M59.2,23.4h-0.4c-0.8,0-1.3-0.3-1.6-0.8c-0.2-0.3-0.3-1-0.3-1.9L56.8,17c0-0.2,0-0.4,0.1-0.5
			c0.1-0.2,0.3-0.3,0.5-0.3c0.4,0,0.6,0.3,0.6,0.8v3.9c0,0.8,0.3,1.1,0.9,1.1h0.3V23.4z"/>
		<path class="st16" d="M62.5,21.1c0,1.6-1,2.3-2.9,2.3h-0.7V22h0.9c1.2,0,1.8-0.3,1.8-0.8c-0.1,0.1-0.2,0.2-0.4,0.2
			s-0.4,0.1-0.5,0.1c-0.4,0-0.8-0.1-1-0.4c-0.2-0.2-0.3-0.5-0.3-0.8c0-0.5,0.1-0.9,0.3-1.3c0.3-0.5,0.7-0.8,1.2-0.8
			c0.6,0,1,0.3,1.3,1C62.4,19.8,62.5,20.4,62.5,21.1z M61.3,16.8c0,0.2-0.1,0.3-0.2,0.5s-0.3,0.2-0.5,0.2s-0.3-0.1-0.5-0.2
			s-0.2-0.3-0.2-0.5s0.1-0.3,0.2-0.5s0.3-0.2,0.5-0.2s0.3,0.1,0.5,0.2S61.3,16.6,61.3,16.8z M61.3,20.1c0-0.2-0.1-0.3-0.2-0.4
			s-0.2-0.2-0.4-0.2c-0.1,0-0.2,0.1-0.3,0.2s-0.1,0.2-0.1,0.4c0,0.3,0.2,0.4,0.5,0.4C61.1,20.4,61.3,20.3,61.3,20.1z"/>
		<path class="st16" d="M68.8,23.4h-0.4c-0.4,0-0.8-0.1-1-0.4c-0.3,0.7-0.7,1.4-1.3,1.9c-0.5,0.4-1.1,0.8-2,1.1
			c-0.1,0.1-0.2,0.1-0.3,0.1c-0.2,0-0.3,0-0.4-0.1s-0.2-0.2-0.2-0.4c0-0.3,0.2-0.5,0.5-0.6c0.7-0.3,1.2-0.6,1.6-0.9
			c0.6-0.4,0.9-0.9,1-1.5c0-0.1,0-0.1,0-0.2c0-0.3-0.1-0.6-0.2-1c0-0.1,0-0.1,0-0.2c0-0.2,0.1-0.3,0.2-0.4s0.2-0.2,0.4-0.2
			c0.2,0,0.4,0.1,0.6,0.4c0,0,0.1,0.3,0.3,0.7c0.2,0.3,0.5,0.4,0.9,0.4h0.2V23.4z"/>
		<path class="st16" d="M71,21.3c0,0.7-0.2,1.2-0.6,1.6s-0.9,0.6-1.5,0.6h-0.5V22H69c0.6,0,0.9-0.2,0.9-0.6c0-0.1,0-0.3-0.1-0.5
			c-0.1-0.2-0.1-0.4-0.1-0.5c0-0.2,0.1-0.3,0.2-0.4s0.2-0.2,0.4-0.2C70.8,19.8,71,20.3,71,21.3z M70.1,25.2c0,0.2-0.1,0.3-0.2,0.5
			s-0.3,0.2-0.5,0.2s-0.3-0.1-0.5-0.2s-0.2-0.3-0.2-0.5s0.1-0.3,0.2-0.5s0.3-0.2,0.5-0.2c0.2,0,0.3,0.1,0.5,0.2S70.1,25.1,70.1,25.2
			z M71.7,25.2c0,0.2-0.1,0.3-0.2,0.5s-0.3,0.2-0.5,0.2s-0.3-0.1-0.5-0.2s-0.2-0.3-0.2-0.5c0-0.2,0.1-0.3,0.2-0.5s0.3-0.2,0.5-0.2
			c0.2,0,0.3,0.1,0.5,0.2S71.7,25,71.7,25.2z"/>
		<path class="st16" d="M75.1,23.4h-0.4c-0.8,0-1.3-0.3-1.6-0.8c-0.2-0.3-0.3-1-0.3-1.9L72.7,17c0-0.2,0-0.4,0.1-0.5
			c0.1-0.2,0.3-0.3,0.5-0.3c0.4,0,0.6,0.3,0.6,0.8v3.9c0,0.8,0.3,1.1,0.9,1.1h0.3V23.4z"/>
		<path class="st16" d="M78.4,21.1c0,1.6-1,2.3-2.9,2.3h-0.7V22h0.9c1.2,0,1.8-0.3,1.8-0.8c-0.1,0.1-0.2,0.2-0.4,0.2
			s-0.4,0.1-0.5,0.1c-0.4,0-0.8-0.1-1-0.4c-0.2-0.2-0.3-0.5-0.3-0.8c0-0.5,0.1-0.9,0.3-1.3c0.3-0.5,0.7-0.8,1.2-0.8
			c0.6,0,1,0.3,1.3,1C78.3,19.8,78.4,20.4,78.4,21.1z M77.2,16.8c0,0.2-0.1,0.3-0.2,0.5s-0.3,0.2-0.5,0.2s-0.3-0.1-0.5-0.2
			s-0.2-0.3-0.2-0.5s0.1-0.3,0.2-0.5s0.3-0.2,0.5-0.2s0.3,0.1,0.5,0.2S77.2,16.6,77.2,16.8z M77.2,20.1c0-0.2-0.1-0.3-0.2-0.4
			s-0.2-0.2-0.4-0.2c-0.1,0-0.2,0.1-0.3,0.2s-0.1,0.2-0.1,0.4c0,0.3,0.2,0.4,0.5,0.4C77,20.4,77.2,20.3,77.2,20.1z"/>
		<path class="st16" d="M86.4,23.4H86c-1.1,0-1.7-0.5-1.7-1.5c-0.2,0.1-0.5,0.2-0.8,0.2c-0.4,0-0.7-0.1-1-0.2
			c-0.4-0.2-0.6-0.5-0.6-0.8c0-0.6,0.3-1,0.8-1.4c0.2-0.1,0.6-0.4,1.3-0.8c0.1-0.1,0.3-0.3,0.5-0.6c0.1-0.2,0.2-0.3,0.4-0.3
			c0.3,0,0.5,0.2,0.5,0.7c0,0.2,0,0.5-0.1,0.8c0,0.4-0.1,0.7-0.1,0.8c0,0.5,0,0.8,0.1,1.1c0.1,0.4,0.3,0.6,0.7,0.6h0.4V23.4z
			 M84.2,19.8c-0.1,0.1-0.3,0.2-0.8,0.5c-0.3,0.1-0.4,0.3-0.4,0.4c0,0.1,0.2,0.2,0.5,0.2c0.3,0,0.5,0,0.7-0.1c0-0.1,0-0.2,0-0.3
			C84.2,20.3,84.2,20.1,84.2,19.8z"/>
		<path class="st16" d="M88.6,21.3c0,0.7-0.2,1.2-0.6,1.6s-0.9,0.6-1.5,0.6h-0.5V22h0.5c0.6,0,0.9-0.2,0.9-0.6c0-0.1,0-0.3-0.1-0.5
			c-0.1-0.2-0.1-0.4-0.1-0.5c0-0.2,0.1-0.3,0.2-0.4s0.2-0.2,0.4-0.2C88.4,19.8,88.6,20.3,88.6,21.3z M88.3,18.1
			c0,0.2-0.1,0.3-0.2,0.5s-0.3,0.2-0.5,0.2s-0.3-0.1-0.5-0.2s-0.2-0.3-0.2-0.5s0.1-0.3,0.2-0.5s0.3-0.2,0.5-0.2s0.3,0.1,0.5,0.2
			S88.3,17.9,88.3,18.1z"/>
		<path class="st16" d="M93.3,21.8c0,0.9-0.3,1.7-1,2.5c-0.6,0.7-1.3,1.2-2.2,1.5c-0.1,0-0.2,0.1-0.3,0.1c-0.2,0-0.3-0.1-0.4-0.2
			s-0.2-0.2-0.2-0.4c0-0.2,0.1-0.4,0.4-0.6c0.5-0.2,1-0.5,1.4-0.9c0.5-0.4,0.9-0.9,1-1.3c-0.2,0.1-0.4,0.1-0.7,0.1
			c-0.4,0-0.8-0.1-1-0.4s-0.4-0.6-0.4-1c0-0.4,0.1-0.9,0.4-1.2c0.3-0.4,0.6-0.6,1-0.6c0.6,0,1,0.3,1.4,0.8
			C93.2,20.6,93.3,21.2,93.3,21.8z M92.1,21.4c0-0.2-0.1-0.4-0.2-0.5c-0.1-0.2-0.3-0.2-0.4-0.2c-0.1,0-0.2,0-0.3,0.1
			s-0.1,0.2-0.1,0.3c0,0.3,0.2,0.4,0.5,0.4C91.8,21.5,92,21.5,92.1,21.4z"/>
		<path class="st16" d="M99.6,23.4h-0.4c-0.4,0-0.8-0.1-1-0.4c-0.3,0.7-0.7,1.4-1.3,1.9c-0.5,0.4-1.1,0.8-2,1.1
			c-0.1,0.1-0.2,0.1-0.3,0.1c-0.2,0-0.3,0-0.4-0.1s-0.2-0.2-0.2-0.4c0-0.3,0.2-0.5,0.5-0.6c0.7-0.3,1.2-0.6,1.6-0.9
			c0.6-0.4,0.9-0.9,1-1.5c0-0.1,0-0.1,0-0.2c0-0.3-0.1-0.6-0.2-1c0-0.1,0-0.1,0-0.2c0-0.2,0.1-0.3,0.2-0.4s0.2-0.2,0.4-0.2
			c0.2,0,0.4,0.1,0.6,0.4c0,0,0.1,0.3,0.3,0.7c0.2,0.3,0.5,0.4,0.9,0.4h0.2V23.4z M97.8,18.9c0,0.2-0.1,0.3-0.2,0.5
			s-0.3,0.2-0.5,0.2c-0.2,0-0.3-0.1-0.5-0.2s-0.2-0.3-0.2-0.5s0.1-0.3,0.2-0.5s0.3-0.2,0.5-0.2s0.3,0.1,0.5,0.2S97.8,18.7,97.8,18.9
			z"/>
		<path class="st16" d="M102.9,21.1c0,1.6-1,2.3-2.9,2.3h-0.7V22h0.9c1.2,0,1.8-0.3,1.8-0.8c-0.1,0.1-0.2,0.2-0.4,0.2
			s-0.4,0.1-0.5,0.1c-0.4,0-0.8-0.1-1-0.4c-0.2-0.2-0.3-0.5-0.3-0.8c0-0.5,0.1-0.9,0.3-1.3c0.3-0.5,0.7-0.8,1.2-0.8
			c0.6,0,1,0.3,1.3,1C102.8,19.8,102.9,20.4,102.9,21.1z M101.7,16.8c0,0.2-0.1,0.3-0.2,0.5s-0.3,0.2-0.5,0.2s-0.3-0.1-0.5-0.2
			s-0.2-0.3-0.2-0.5s0.1-0.3,0.2-0.5s0.3-0.2,0.5-0.2s0.3,0.1,0.5,0.2S101.7,16.6,101.7,16.8z M101.7,20.1c0-0.2-0.1-0.3-0.2-0.4
			s-0.2-0.2-0.4-0.2c-0.1,0-0.2,0.1-0.3,0.2s-0.1,0.2-0.1,0.4c0,0.3,0.2,0.4,0.5,0.4C101.5,20.4,101.7,20.3,101.7,20.1z"/>
		<path class="st16" d="M105.1,23c0,0.4-0.2,0.6-0.5,0.6c-0.3,0-0.5-0.2-0.5-0.6l-0.2-5.8c0-0.2,0-0.5,0.1-0.6
			c0.1-0.2,0.3-0.3,0.5-0.3c0.4,0,0.6,0.3,0.6,0.9V23z"/>
		<path class="st16" d="M112.2,23.1c-0.2,0.2-0.6,0.3-1.2,0.5c-0.4,0.1-0.8,0.2-1.2,0.2c-0.8,0-1.2-0.2-1.1-0.6
			c0-0.3,0.3-0.6,0.9-0.6c0.1,0,0.6-0.1,1.3-0.1c0.6-0.1,0.9-0.3,0.9-0.5c0-0.4-0.4-1-1.3-1.8c-0.3-0.3-0.5-0.5-0.5-0.7
			c0-0.2,0.1-0.3,0.2-0.4c0.1-0.1,0.3-0.1,0.5-0.1c0.4,0,0.9,0.4,1.4,1.2c0.5,0.8,0.7,1.3,0.7,1.8C112.8,22.4,112.6,22.8,112.2,23.1
			z"/>
		<path class="st16" d="M118.4,23.4h-1c-0.4,1.3-1.4,2.3-3.1,3c-0.1,0-0.2,0.1-0.3,0.1c-0.2,0-0.3-0.1-0.4-0.2s-0.2-0.2-0.2-0.4
			c0-0.3,0.1-0.5,0.4-0.6c1.2-0.5,2-1.2,2.3-1.9c-0.6,0-1.1-0.1-1.4-0.2c-0.4-0.2-0.6-0.6-0.6-1.2c0-0.4,0.1-0.9,0.4-1.3
			c0.3-0.4,0.6-0.7,1-0.7c0.5,0,0.9,0.2,1.2,0.6c0.3,0.4,0.5,0.8,0.5,1.3h0.9V23.4z M116.3,22.1c0-0.2-0.1-0.4-0.2-0.5
			c-0.1-0.2-0.3-0.3-0.5-0.3c-0.1,0-0.2,0-0.3,0.1s-0.1,0.2-0.1,0.3c0,0.2,0.1,0.3,0.4,0.4C115.8,22.1,116,22.1,116.3,22.1z"/>
		<path class="st16" d="M121.5,23.4h-0.4c-0.3,0-0.5-0.1-0.7-0.2c-0.3-0.1-0.4-0.3-0.5-0.5c-0.3,0.5-0.7,0.7-1.5,0.7H118V22h0.4
			c0.4,0,0.6-0.1,0.8-0.3c0.1-0.2,0.1-0.4,0.1-0.9l-0.1-3.9c0-0.2,0-0.4,0.2-0.5c0.1-0.1,0.3-0.2,0.5-0.2c0.2,0,0.3,0.1,0.4,0.2
			c0.1,0.1,0.2,0.3,0.2,0.5v3.7c0,1,0.3,1.4,0.9,1.4h0.3V23.4z"/>
		<path class="st16" d="M123.8,21.3c0,0.7-0.2,1.2-0.6,1.6s-0.9,0.6-1.5,0.6h-0.5V22h0.5c0.6,0,0.9-0.2,0.9-0.6c0-0.1,0-0.3-0.1-0.5
			c-0.1-0.2-0.1-0.4-0.1-0.5c0-0.2,0.1-0.3,0.2-0.4s0.2-0.2,0.4-0.2C123.5,19.8,123.8,20.3,123.8,21.3z M123.4,18.1
			c0,0.2-0.1,0.3-0.2,0.5s-0.3,0.2-0.5,0.2s-0.3-0.1-0.5-0.2s-0.2-0.3-0.2-0.5s0.1-0.3,0.2-0.5s0.3-0.2,0.5-0.2s0.3,0.1,0.5,0.2
			S123.4,17.9,123.4,18.1z"/>
		<path class="st16" d="M126,23c0,0.4-0.2,0.6-0.5,0.6c-0.3,0-0.5-0.2-0.5-0.6l-0.2-5.8c0-0.2,0-0.5,0.1-0.6
			c0.1-0.2,0.3-0.3,0.5-0.3c0.4,0,0.6,0.3,0.6,0.9V23z"/>
		<path class="st16" d="M130.5,23.1c-0.2,0.2-0.6,0.3-1.2,0.5c-0.4,0.1-0.8,0.2-1.2,0.2c-0.8,0-1.2-0.2-1.1-0.6
			c0-0.3,0.3-0.6,0.9-0.6c0.1,0,0.6-0.1,1.3-0.1c0.6-0.1,0.9-0.3,0.9-0.5c0-0.4-0.4-1-1.3-1.8c-0.3-0.3-0.5-0.5-0.5-0.7
			c0-0.2,0.1-0.3,0.2-0.4c0.1-0.1,0.3-0.1,0.5-0.1c0.4,0,0.9,0.4,1.4,1.2c0.5,0.8,0.7,1.3,0.7,1.8C131.1,22.4,130.9,22.8,130.5,23.1
			z"/>
	</g>
</g>
</svg>
