<svg width="100%" height="100%" id="svg" viewBox="0 0 1440 700" xmlns="http://www.w3.org/2000/svg" class="transition duration-300 ease-in-out delay-150">
    <defs>
        <linearGradient id="gradient" x1="7%" y1="24%" x2="93%" y2="76%">
            <stop offset="5%" stop-color="#eb144c88"></stop>
            <stop offset="95%" stop-color="#ff690088"></stop>
        </linearGradient>
    </defs>
    <path d="M 0,700 C 0,700 0,233 0,233 C 93.34928229665073,231.54545454545456 186.69856459330146,230.0909090909091 270,208 C 353.30143540669854,185.9090909090909 426.5550239234449,143.18181818181816 538,154 C 649.4449760765551,164.81818181818184 799.0813397129189,229.18181818181824 911,269 C 1022.9186602870811,308.81818181818176 1097.1196172248804,324.09090909090907 1179,314 C 1260.8803827751196,303.90909090909093 1350.44019138756,268.4545454545455 1440,233 C 1440,233 1440,700 1440,700 Z" stroke="none" stroke-width="0" fill="url(#gradient)" class="transition-all duration-300 ease-in-out delay-150 path-0" transform="rotate(-180 720 350)"></path>
    <defs>
        <linearGradient id="gradient" x1="7%" y1="24%" x2="93%" y2="76%">
            <stop offset="5%" stop-color="#eb144cff"></stop>
            <stop offset="95%" stop-color="#ff6900ff"></stop>
        </linearGradient>
    </defs>
    <path d="M 0,700 C 0,700 0,466 0,466 C 125.36842105263159,489.0526315789474 250.73684210526318,512.1052631578948 334,511 C 417.2631578947368,509.89473684210526 458.42105263157896,484.6315789473684 552,472 C 645.578947368421,459.3684210526316 791.578947368421,459.3684210526315 905,478 C 1018.421052631579,496.6315789473685 1099.2631578947369,533.8947368421053 1183,535 C 1266.7368421052631,536.1052631578947 1353.3684210526317,501.05263157894734 1440,466 C 1440,466 1440,700 1440,700 Z" stroke="none" stroke-width="0" fill="url(#gradient)" class="transition-all duration-300 ease-in-out delay-150 path-1" transform="rotate(-180 720 350)"></path>
</svg>