<?xml version="1.0" encoding="utf-8"?>
<!-- Generator: Adobe Illustrator 25.2.0, SVG Export Plug-In . SVG Version: 6.00 Build 0)  -->
<svg version="1.1" id="Layer_1" xmlns="http://www.w3.org/2000/svg" xmlns:xlink="http://www.w3.org/1999/xlink" x="0px" y="0px"
	 viewBox="0 0 512 512" style="enable-background:new 0 0 512 512;" xml:space="preserve">
<style type="text/css">
	.st0{fill:#6D6E71;}
</style>
<g id="outline">
	<path class="st0" d="M453.1,464V296.8l3.3-16.5c8.3-41.7,12.6-84.2,12.7-126.8l24.8-62c5.2-13.2,0.5-28.2-11.2-36.1l-0.6-0.4
		c-36.9-24.7-85.1-24.7-122,0l-0.6,0.4c-11.8,7.9-16.4,22.9-11.2,36.1l24.8,62c0.1,42.6,4.4,85,12.7,126.8l3.3,16.5V464
		c0,17.7,14.3,32,32,32S453.1,481.7,453.1,464L453.1,464z M386.5,144l-23.4-58.4c-2.4-6.1-0.3-13.2,5.2-16.8l0.6-0.4
		c31.6-21.1,72.7-21.1,104.3,0l0.6,0.4c5.5,3.7,7.7,10.7,5.2,16.8L455.6,144h-16.8l6.1-30.4c0.9-4.3-1.9-8.6-6.2-9.4
		c-4.3-0.9-8.6,1.9-9.4,6.2c0,0,0,0.1,0,0.1l-6.7,33.6h-2.9l-6.7-33.6c-0.8-4.3-5-7.2-9.4-6.3c-4.3,0.8-7.2,5-6.3,9.4
		c0,0,0,0.1,0,0.1l6.1,30.4H386.5z M437.1,464c0,8.8-7.2,16-16,16s-16-7.2-16-16V304h32V464z M438.5,288h-34.9l-2.2-10.8
		c-7.7-38.6-11.8-77.8-12.4-117.2H453c-0.2,16-1,32-2.4,48h-21.5c-4.4,0-8,3.6-8,8s3.6,8,8,8H449c-2,17.8-4.8,35.6-8.3,53.2
		L438.5,288z"/>
	<path class="st0" d="M335.4,258l-15.7-5.2c-9.4-3.1-19.6,2-22.8,11.4c-0.6,1.8-0.9,3.8-0.9,5.7V352c-4.4,0-8,3.6-8,8v128
		c0,4.4,3.6,8,8,8h64c4.4,0,8-3.6,8-8V360c0-4.4-3.6-8-8-8v-59.8C360,276.7,350.1,262.9,335.4,258z M312,269.9c0-1.1,0.9-2,2-2
		c0.2,0,0.4,0,0.6,0.1l15.7,5.2c8.2,2.7,13.7,10.4,13.7,19V352h-32V269.9z M352,480h-48v-80h48V480z M352,384h-48v-16h48V384z"/>
	<path class="st0" d="M16,424v4c0,37.5,30.5,68,68,68h120c37.5,0,68-30.5,68-68v-4c0-4.4-3.6-8-8-8h-18.8
		c26.5-55.9,2.7-122.7-53.2-149.2S69.3,264.1,42.8,320c-14.4,30.4-14.4,65.6,0,96H24C19.6,416,16,419.6,16,424z M144,272
		c53,0,96,43,96,96c0,16.8-4.4,33.4-12.9,48H208c26.5-35.4,19.3-85.5-16-112c-35.4-26.5-85.5-19.3-112,16c-21.3,28.4-21.3,67.6,0,96
		H60.9C34.4,370.1,50.1,311.4,96,284.9C110.6,276.4,127.2,272,144,272z M155.2,305c6.6,1.2,13,3.4,18.9,6.6l-77.8,99.1
		c-3.8-4.3-7.1-9.1-9.6-14.2L155.2,305z M80.7,377.7c-5.4-34.9,18.5-67.5,53.4-72.9c0.5-0.1,1-0.1,1.4-0.2L80.7,377.7z M187.2,320.8
		c6.6,6,11.8,13.3,15.4,21.5c0,0-57.5,73.3-57.7,73.7h-32.4L187.2,320.8z M120,432h48c4.4,0,8,3.6,8,8s-3.6,8-8,8h-48
		c-4.4,0-8-3.6-8-8S115.6,432,120,432z M165,416l42.7-54.3c0.2,2.1,0.3,4.2,0.3,6.3c0,18.4-7.9,35.9-21.7,48H165z M97.4,432
		c-4.4,12.5,2.1,26.2,14.6,30.6c2.6,0.9,5.3,1.4,8,1.4h48c13.2,0,24-10.7,24-24c0-2.7-0.5-5.4-1.4-8l0,0h65.2
		c-2.1,27.1-24.7,48-51.8,48H84c-27.2,0-49.7-20.9-51.8-48H97.4z"/>
	<path class="st0" d="M243.6,134.7l12.8,8.5c6.2,4.1,11.2,9.8,14.5,16.4l2,4c2,4,6.8,5.6,10.7,3.6c1.5-0.8,2.8-2,3.6-3.6l2-4
		c3.3-6.6,8.3-12.3,14.5-16.4l12.8-8.5c3.7-2.5,4.7-7.4,2.2-11.1c-1-1.5-2.4-2.6-4.1-3.2c-12.7-4.3-22.7-14.2-26.9-26.9
		c-1.4-4.2-5.9-6.5-10.1-5.1c-2.4,0.8-4.3,2.7-5.1,5.1c-4.3,12.7-14.2,22.7-26.9,26.9c-4.2,1.4-6.5,5.9-5.1,10.1
		C241,132.2,242.1,133.7,243.6,134.7L243.6,134.7z M280,113.6c4.3,6.1,9.7,11.4,16,15.5l-1.2,0.8c-5.7,3.8-10.7,8.6-14.7,14.1
		c-4.1-5.5-9-10.3-14.7-14.1l-1.2-0.8C270.3,125,275.7,119.7,280,113.6z"/>
	<path class="st0" d="M226.5,168.4c-12.7-4.3-22.7-14.2-26.9-26.9c-1.4-4.2-5.9-6.5-10.1-5.1c-2.4,0.8-4.3,2.7-5.1,5.1
		c-4.3,12.7-14.2,22.7-26.9,26.9c-4.2,1.4-6.5,5.9-5.1,10.1c0.6,1.7,1.7,3.1,3.2,4.1l12.8,8.5c6.2,4.1,11.2,9.8,14.5,16.4l2,4
		c2,4,6.8,5.6,10.7,3.6c1.5-0.8,2.8-2,3.6-3.6l2-4c3.3-6.6,8.3-12.3,14.5-16.4l12.8-8.5c3.7-2.5,4.7-7.4,2.2-11.1
		C229.7,170.1,228.2,169,226.5,168.4L226.5,168.4z M206.7,177.9c-5.7,3.8-10.7,8.6-14.7,14.1c-4.1-5.5-9-10.3-14.7-14.1l-1.2-0.8
		c6.3-4.1,11.7-9.4,16-15.5c4.3,6.1,9.7,11.4,16,15.5L206.7,177.9z"/>
	<path class="st0" d="M247.6,71.2l12.8-8.5c3.7-2.5,4.7-7.4,2.2-11.1c-1-1.5-2.4-2.6-4.1-3.1c-12.7-4.3-22.7-14.2-26.9-26.9
		c-1.4-4.2-5.9-6.5-10.1-5.1c-2.4,0.8-4.3,2.7-5.1,5.1c-4.3,12.7-14.2,22.7-26.9,26.9c-4.2,1.4-6.5,5.9-5.1,10.1
		c0.6,1.7,1.7,3.1,3.2,4.1l12.8,8.5c6.2,4.1,11.2,9.8,14.5,16.4l2,4c2,4,6.8,5.6,10.7,3.6c1.5-0.8,2.8-2,3.6-3.6l2-4
		C236.5,81,241.5,75.3,247.6,71.2z M224,72c-4.1-5.5-9-10.3-14.7-14.1l-1.2-0.8c6.3-4.1,11.7-9.4,16-15.5c4.3,6.1,9.7,11.4,16,15.5
		l-1.2,0.8C233,61.7,228.1,66.5,224,72z"/>
</g>
</svg>
