<?xml version="1.0" encoding="utf-8"?>
<!-- Generator: Adobe Illustrator 25.2.0, SVG Export Plug-In . SVG Version: 6.00 Build 0)  -->
<svg version="1.1" id="Capa_1" xmlns="http://www.w3.org/2000/svg" xmlns:xlink="http://www.w3.org/1999/xlink" x="0px" y="0px"
	 viewBox="0 0 512 512" style="enable-background:new 0 0 512 512;" xml:space="preserve">
<style type="text/css">
	.st0{fill:#565759;}
</style>
<g>
	<path class="st0" d="M509.8,109.5c-2.9-2.9-7.6-2.9-10.5,0L453,155.8c-7.6,7.6-17.8,11.8-28.6,11.8c-10.4,0-20.3-3.9-27.8-11.1
		c0.8-0.7,1.5-1.4,2.2-2.1c13-13,20.2-30.2,20.4-48.4c0.2-18.3-6.8-35.4-19.6-48.2c-26.4-26.4-69.7-26.1-96.6,0.8
		c-2.3,2.3-5.1,5.5-8.2,9.2c-13.5-5.8-28.1-8.8-43.1-8.8H251c-60.5,0-109.7,49.2-109.7,109.7c0,29.3,11.4,56.9,32.1,77.6
		c8.2,8.2,19.4,19.4,31.6,31.6L27.2,430.2l136.1-159c2.7-3.1,2.3-7.8-0.8-10.5c-3.1-2.7-7.8-2.3-10.5,0.8L3.3,435.2
		c-4.7,5.5-4.4,13.1,0.7,18.2c5.1,5.1,12.8,5.4,18.2,0.7l193.4-165.5c27.8,27.8,58,58,70.1,70c-12.5,12.5-40.2,42.6-40.2,64.3
		c0,28,22.8,50.8,50.8,50.8c28,0,50.8-22.8,50.8-50.8c0-21.7-27.7-51.8-40.2-64.3l8.2-8.2c10-10,15.5-23.3,15.5-37.5
		s-5.5-27.4-15.5-37.5l-9.5-9.5c-2.9-2.9-7.6-2.9-10.5,0s-2.9,7.6,0,10.5l9.5,9.5c7.2,7.2,11.1,16.7,11.1,26.9s-4,19.7-11.1,26.9
		l-8.2,8.2c-17.9-17.8-76.7-76.6-107.1-107.1l36.5-42.6c14.8-17.3,28-36.6,39.1-57.5c10.8-20.2,23.7-40,34.3-54.3
		c7.1,4.1,13.7,9.2,19.7,15.1l24.8,24.8l-6.7,6.7c-3.5,3.5-9.2,3.5-12.7,0c-0.3-0.3-0.5-0.5-0.7-0.8c-2.6-3.2-7.2-3.8-10.5-1.2
		c-4.3,3.3-3.3,9.4,0.6,12.6c4.7,4.7,10.8,7,16.9,7s12.2-2.3,16.9-7l23.4-23.4c9.3-9.3,9.3-24.5,0-33.8c-9.3-9.3-24.5-9.3-33.8,0
		l-6.2,6.2l-1.6-1.6c-6.4-6.4-13.4-11.8-20.9-16.4c1.9-2.2,3.6-4.1,5.2-5.7c21-21,54.9-21.4,75.5-0.8c10,10,15.4,23.3,15.2,37.5
		c-0.1,14.3-5.8,27.8-16,38c-11,11-40.8,32.2-71.8,48.8c-20.9,11.2-40.2,24.3-57.5,39.1l-23.2,19.8c-3.1,2.7-3.5,7.4-0.8,10.5
		c2.7,3.1,7.4,3.5,10.5,0.8l23.2-19.8c16.5-14.1,34.9-26.7,54.8-37.3c24.1-12.9,46.6-27.9,61.6-39.7l0.2,0.2
		c10.4,10.4,24.3,16.2,39.1,16.2c14.8,0,28.7-5.8,39.1-16.2l46.3-46.3C512.7,117.2,512.7,112.5,509.8,109.5L509.8,109.5z
		 M347.6,97.2c3.5-3.5,9.2-3.5,12.7,0c3.5,3.5,3.5,9.2,0,12.7l-6.2,6.2l-12.7-12.7L347.6,97.2z M296.3,458.8
		c-19.8,0-35.9-16.1-35.9-35.9c0-13.5,20.3-38.3,35.9-53.9c15.6,15.6,35.9,40.3,35.9,53.9C332.2,442.7,316.1,458.8,296.3,458.8
		L296.3,458.8z M251.6,134c-10.7,19.9-23.2,38.4-37.3,54.8l-35.5,41.5c-14.6-17.1-22.6-38.7-22.6-61.4c0-52.3,42.5-94.8,94.8-94.8
		h0.7c11.7,0,23.1,2.1,33.7,6.1C274.8,94.6,262.4,113.7,251.6,134L251.6,134z"/>
</g>
</svg>
