<svg xmlns="http://www.w3.org/2000/svg" height="20" width="20" fill="#787878"><path d="M11.5 11q-1.042 0-1.771-.729Q9 9.542 9 8.5q0-1.042.729-1.771Q10.458 6 11.5 6q1.042 0 1.771.729Q14 7.458 14 8.5q0 1.042-.729 1.771Q12.542 11 11.5 11Zm-6 2q-.625 0-1.062-.438Q4 12.125 4 11.5v-6q0-.625.438-1.062Q4.875 4 5.5 4h12q.625 0 1.062.438Q19 4.875 19 5.5v6q0 .625-.438 1.062Q18.125 13 17.5 13ZM7 11.5h9q0-.625.438-1.062Q16.875 10 17.5 10V7q-.625 0-1.062-.438Q16 6.125 16 5.5H7q0 .625-.438 1.062Q6.125 7 5.5 7v3q.625 0 1.062.438Q7 10.875 7 11.5Zm9.5 4.5h-14q-.625 0-1.062-.438Q1 15.125 1 14.5V6h1.5v8.5h14Zm-11-4.5v-6 6Z"/></svg>